<svg width="181" height="22" viewBox="0 0 181 22" fill="none" xmlns="http://www.w3.org/2000/svg">
<path d="M-3.38256e-06 16.1919V0.681894H10.45V2.90389H2.728V7.19389H9.944V9.43789H2.728V13.9479H10.45V16.1919H-3.38256e-06ZM17.1115 16.4119C16.1435 16.4119 15.2855 16.1846 14.5375 15.7299C13.8042 15.2606 13.2322 14.5932 12.8215 13.7279C12.4109 12.8626 12.2055 11.8286 12.2055 10.6259C12.2055 9.42323 12.4109 8.39656 12.8215 7.54589C13.2322 6.68056 13.8042 6.02056 14.5375 5.56589C15.2855 5.09656 16.1435 4.86189 17.1115 4.86189C18.0355 4.86189 18.8495 5.08923 19.5535 5.54389C20.2722 5.98389 20.7489 6.58523 20.9835 7.34789H20.6975V-0.000106812H23.4475V16.1919H20.7415V13.8379H21.0055C20.7709 14.6299 20.2942 15.2606 19.5755 15.7299C18.8715 16.1846 18.0502 16.4119 17.1115 16.4119ZM17.8815 14.2999C18.7469 14.2999 19.4435 13.9992 19.9715 13.3979C20.4995 12.7819 20.7635 11.8579 20.7635 10.6259C20.7635 9.39389 20.4995 8.47723 19.9715 7.87589C19.4435 7.27456 18.7469 6.97389 17.8815 6.97389C17.0162 6.97389 16.3122 7.27456 15.7695 7.87589C15.2415 8.47723 14.9775 9.39389 14.9775 10.6259C14.9775 11.8579 15.2415 12.7819 15.7695 13.3979C16.3122 13.9992 17.0162 14.2999 17.8815 14.2999ZM29.5221 16.1919L25.1881 5.08189H28.0261L31.1501 13.7279H30.5781L33.7461 5.08189H35.7041L38.8501 13.7279H38.3441L41.4461 5.08189H44.1301L39.7961 16.1919H37.3761L34.0541 7.34789H35.2201L31.9641 16.1919H29.5221ZM49.9391 16.4119C48.9711 16.4119 48.1205 16.1846 47.3871 15.7299C46.6538 15.2606 46.0818 14.5932 45.6711 13.7279C45.2605 12.8626 45.0551 11.8286 45.0551 10.6259C45.0551 9.42323 45.2605 8.39656 45.6711 7.54589C46.0818 6.68056 46.6538 6.02056 47.3871 5.56589C48.1205 5.09656 48.9711 4.86189 49.9391 4.86189C50.8778 4.86189 51.6991 5.09656 52.4031 5.56589C53.1218 6.02056 53.5985 6.63656 53.8331 7.41389H53.5911L53.8331 5.08189H56.4731C56.4291 5.53656 56.3851 5.99856 56.3411 6.46789C56.3118 6.93723 56.2971 7.39923 56.2971 7.85389V16.1919H53.5691L53.5471 13.9039H53.8111C53.5765 14.6666 53.0998 15.2752 52.3811 15.7299C51.6625 16.1846 50.8485 16.4119 49.9391 16.4119ZM50.7091 14.2999C51.5745 14.2999 52.2711 13.9992 52.7991 13.3979C53.3271 12.7819 53.5911 11.8579 53.5911 10.6259C53.5911 9.39389 53.3271 8.47723 52.7991 7.87589C52.2711 7.27456 51.5745 6.97389 50.7091 6.97389C49.8438 6.97389 49.1471 7.27456 48.6191 7.87589C48.0911 8.47723 47.8271 9.39389 47.8271 10.6259C47.8271 11.8579 48.0838 12.7819 48.5971 13.3979C49.1251 13.9992 49.8291 14.2999 50.7091 14.2999ZM59.2697 16.1919V7.91989C59.2697 7.45056 59.255 6.97389 59.2257 6.48989C59.211 6.00589 59.1744 5.53656 59.1157 5.08189H61.7777L62.0857 8.11789H61.6457C61.7924 7.38456 62.0344 6.77589 62.3717 6.29189C62.7237 5.80789 63.149 5.44856 63.6477 5.21389C64.1464 4.97923 64.689 4.86189 65.2757 4.86189C65.5397 4.86189 65.7524 4.87656 65.9137 4.90589C66.075 4.92056 66.2364 4.95723 66.3977 5.01589L66.3757 7.43589C66.097 7.31856 65.855 7.24523 65.6497 7.21589C65.459 7.18656 65.217 7.17189 64.9237 7.17189C64.293 7.17189 63.7577 7.30389 63.3177 7.56789C62.8924 7.83189 62.5697 8.19856 62.3497 8.66789C62.1444 9.13723 62.0417 9.67256 62.0417 10.2739V16.1919H59.2697ZM72.0686 16.4119C71.1006 16.4119 70.2426 16.1846 69.4946 15.7299C68.7612 15.2606 68.1892 14.5932 67.7786 13.7279C67.3679 12.8626 67.1626 11.8286 67.1626 10.6259C67.1626 9.42323 67.3679 8.39656 67.7786 7.54589C68.1892 6.68056 68.7612 6.02056 69.4946 5.56589C70.2426 5.09656 71.1006 4.86189 72.0686 4.86189C72.9926 4.86189 73.8066 5.08923 74.5106 5.54389C75.2292 5.98389 75.7059 6.58523 75.9406 7.34789H75.6546V-0.000106812H78.4046V16.1919H75.6986V13.8379H75.9626C75.7279 14.6299 75.2512 15.2606 74.5326 15.7299C73.8286 16.1846 73.0072 16.4119 72.0686 16.4119ZM72.8386 14.2999C73.7039 14.2999 74.4006 13.9992 74.9286 13.3979C75.4566 12.7819 75.7206 11.8579 75.7206 10.6259C75.7206 9.39389 75.4566 8.47723 74.9286 7.87589C74.4006 7.27456 73.7039 6.97389 72.8386 6.97389C71.9732 6.97389 71.2692 7.27456 70.7266 7.87589C70.1986 8.47723 69.9346 9.39389 69.9346 10.6259C69.9346 11.8579 70.1986 12.7819 70.7266 13.3979C71.2692 13.9992 71.9732 14.2999 72.8386 14.2999ZM87.6562 16.1919V0.681894H89.7902L98.7882 12.3199H98.2162V0.681894H100.856V16.1919H98.7222L89.7462 4.55389H90.2962V16.1919H87.6562ZM109.412 16.4119C107.549 16.4119 106.09 15.8986 105.034 14.8719C103.978 13.8452 103.45 12.4372 103.45 10.6479C103.45 9.48923 103.677 8.47723 104.132 7.61189C104.586 6.74656 105.217 6.07189 106.024 5.58789C106.845 5.10389 107.798 4.86189 108.884 4.86189C109.954 4.86189 110.849 5.08923 111.568 5.54389C112.286 5.99856 112.829 6.63656 113.196 7.45789C113.577 8.27923 113.768 9.23989 113.768 10.3399V11.0659H105.672V9.61389H111.81L111.436 9.92189C111.436 8.89523 111.216 8.11056 110.776 7.56789C110.35 7.02523 109.727 6.75389 108.906 6.75389C107.996 6.75389 107.292 7.07656 106.794 7.72189C106.31 8.36723 106.068 9.26923 106.068 10.4279V10.7139C106.068 11.9166 106.361 12.8186 106.948 13.4199C107.549 14.0066 108.392 14.2999 109.478 14.2999C110.108 14.2999 110.695 14.2192 111.238 14.0579C111.795 13.8819 112.323 13.6032 112.822 13.2219L113.636 15.0699C113.108 15.4952 112.477 15.8252 111.744 16.0599C111.01 16.2946 110.233 16.4119 109.412 16.4119ZM119.005 16.1919L114.671 5.08189H117.509L120.633 13.7279H120.061L123.229 5.08189H125.187L128.333 13.7279H127.827L130.929 5.08189H133.613L129.279 16.1919H126.859L123.537 7.34789H124.703L121.447 16.1919H119.005ZM140.28 21.1199C139.253 21.1199 138.322 21.0099 137.486 20.7899C136.664 20.5699 135.931 20.2326 135.286 19.7779L135.88 17.7979C136.305 18.0766 136.745 18.3039 137.2 18.4799C137.654 18.6559 138.124 18.7879 138.608 18.8759C139.092 18.9639 139.583 19.0079 140.082 19.0079C141.108 19.0079 141.871 18.7512 142.37 18.2379C142.883 17.7392 143.14 17.0206 143.14 16.0819V13.4199H143.36C143.125 14.1826 142.648 14.7912 141.93 15.2459C141.226 15.7006 140.412 15.9279 139.488 15.9279C138.49 15.9279 137.618 15.7079 136.87 15.2679C136.136 14.8132 135.564 14.1679 135.154 13.3319C134.743 12.4959 134.538 11.5132 134.538 10.3839C134.538 9.25456 134.743 8.27923 135.154 7.45789C135.564 6.62189 136.136 5.98389 136.87 5.54389C137.618 5.08923 138.49 4.86189 139.488 4.86189C140.426 4.86189 141.24 5.08923 141.93 5.54389C142.634 5.98389 143.103 6.58523 143.338 7.34789L143.14 7.21589L143.36 5.08189H146.022C145.963 5.53656 145.919 5.99856 145.89 6.46789C145.86 6.93723 145.846 7.39923 145.846 7.85389V15.7519C145.846 17.4972 145.369 18.8246 144.416 19.7339C143.477 20.6579 142.098 21.1199 140.28 21.1199ZM140.236 13.8159C141.116 13.8159 141.812 13.5226 142.326 12.9359C142.854 12.3346 143.118 11.4839 143.118 10.3839C143.118 9.28389 142.854 8.44056 142.326 7.85389C141.812 7.26723 141.116 6.97389 140.236 6.97389C139.341 6.97389 138.63 7.26723 138.102 7.85389C137.574 8.44056 137.31 9.28389 137.31 10.3839C137.31 11.4839 137.574 12.3346 138.102 12.9359C138.63 13.5226 139.341 13.8159 140.236 13.8159ZM153.107 16.4119C152.139 16.4119 151.288 16.1846 150.555 15.7299C149.822 15.2606 149.25 14.5932 148.839 13.7279C148.428 12.8626 148.223 11.8286 148.223 10.6259C148.223 9.42323 148.428 8.39656 148.839 7.54589C149.25 6.68056 149.822 6.02056 150.555 5.56589C151.288 5.09656 152.139 4.86189 153.107 4.86189C154.046 4.86189 154.867 5.09656 155.571 5.56589C156.29 6.02056 156.766 6.63656 157.001 7.41389H156.759L157.001 5.08189H159.641C159.597 5.53656 159.553 5.99856 159.509 6.46789C159.48 6.93723 159.465 7.39923 159.465 7.85389V16.1919H156.737L156.715 13.9039H156.979C156.744 14.6666 156.268 15.2752 155.549 15.7299C154.83 16.1846 154.016 16.4119 153.107 16.4119ZM153.877 14.2999C154.742 14.2999 155.439 13.9992 155.967 13.3979C156.495 12.7819 156.759 11.8579 156.759 10.6259C156.759 9.39389 156.495 8.47723 155.967 7.87589C155.439 7.27456 154.742 6.97389 153.877 6.97389C153.012 6.97389 152.315 7.27456 151.787 7.87589C151.259 8.47723 150.995 9.39389 150.995 10.6259C150.995 11.8579 151.252 12.7819 151.765 13.3979C152.293 13.9992 152.997 14.2999 153.877 14.2999ZM167.212 16.4119C165.892 16.4119 164.894 16.0672 164.22 15.3779C163.545 14.6886 163.208 13.6546 163.208 12.2759V7.14989H161.074V5.08189H163.208V2.24389L165.958 1.53989V5.08189H168.928V7.14989H165.958V12.0999C165.958 12.8626 166.104 13.3979 166.398 13.7059C166.691 14.0139 167.094 14.1679 167.608 14.1679C167.886 14.1679 168.121 14.1459 168.312 14.1019C168.517 14.0579 168.715 13.9992 168.906 13.9259V16.1039C168.656 16.2066 168.378 16.2799 168.07 16.3239C167.776 16.3826 167.49 16.4119 167.212 16.4119ZM176.056 16.4119C174.194 16.4119 172.734 15.8986 171.678 14.8719C170.622 13.8452 170.094 12.4372 170.094 10.6479C170.094 9.48923 170.322 8.47723 170.776 7.61189C171.231 6.74656 171.862 6.07189 172.668 5.58789C173.49 5.10389 174.443 4.86189 175.528 4.86189C176.599 4.86189 177.494 5.08923 178.212 5.54389C178.931 5.99856 179.474 6.63656 179.84 7.45789C180.222 8.27923 180.412 9.23989 180.412 10.3399V11.0659H172.316V9.61389H178.454L178.08 9.92189C178.08 8.89523 177.86 8.11056 177.42 7.56789C176.995 7.02523 176.372 6.75389 175.55 6.75389C174.641 6.75389 173.937 7.07656 173.438 7.72189C172.954 8.36723 172.712 9.26923 172.712 10.4279V10.7139C172.712 11.9166 173.006 12.8186 173.592 13.4199C174.194 14.0066 175.037 14.2999 176.122 14.2999C176.753 14.2999 177.34 14.2192 177.882 14.0579C178.44 13.8819 178.968 13.6032 179.466 13.2219L180.28 15.0699C179.752 15.4952 179.122 15.8252 178.388 16.0599C177.655 16.2946 176.878 16.4119 176.056 16.4119Z" fill="white"/>
</svg>
